<mxfile host="app.diagrams.net" agent="Mozilla/5.0 (X11; Linux x86_64) AppleWebKit/537.36 (KHTML, like Gecko) Chrome/126.0.0.0 Safari/537.36" version="28.0.6">
  <diagram name="第 1 页" id="2ILh3CoFDcX50B4134gA">
    <mxGraphModel dx="2263" dy="737" grid="1" gridSize="10" guides="1" tooltips="1" connect="1" arrows="1" fold="1" page="1" pageScale="1" pageWidth="827" pageHeight="1169" math="0" shadow="0">
      <root>
        <mxCell id="0" />
        <mxCell id="1" parent="0" />
        <mxCell id="rRcewzAmyN-qnKviRc5V-4" value="" style="edgeStyle=orthogonalEdgeStyle;rounded=0;orthogonalLoop=1;jettySize=auto;html=1;" edge="1" parent="1" source="BWjhj73lmF8ZgqSWJlSN-1" target="rRcewzAmyN-qnKviRc5V-1">
          <mxGeometry relative="1" as="geometry" />
        </mxCell>
        <mxCell id="rRcewzAmyN-qnKviRc5V-9" style="edgeStyle=orthogonalEdgeStyle;rounded=0;orthogonalLoop=1;jettySize=auto;html=1;entryX=1;entryY=0.5;entryDx=0;entryDy=0;" edge="1" parent="1" source="BWjhj73lmF8ZgqSWJlSN-1" target="rRcewzAmyN-qnKviRc5V-2">
          <mxGeometry relative="1" as="geometry" />
        </mxCell>
        <mxCell id="rRcewzAmyN-qnKviRc5V-10" style="edgeStyle=orthogonalEdgeStyle;rounded=0;orthogonalLoop=1;jettySize=auto;html=1;entryX=1;entryY=0.5;entryDx=0;entryDy=0;" edge="1" parent="1" source="BWjhj73lmF8ZgqSWJlSN-1" target="rRcewzAmyN-qnKviRc5V-7">
          <mxGeometry relative="1" as="geometry" />
        </mxCell>
        <mxCell id="rRcewzAmyN-qnKviRc5V-12" style="edgeStyle=orthogonalEdgeStyle;rounded=0;orthogonalLoop=1;jettySize=auto;html=1;entryX=1;entryY=0.5;entryDx=0;entryDy=0;" edge="1" parent="1" source="BWjhj73lmF8ZgqSWJlSN-1" target="rRcewzAmyN-qnKviRc5V-11">
          <mxGeometry relative="1" as="geometry" />
        </mxCell>
        <mxCell id="rRcewzAmyN-qnKviRc5V-24" style="edgeStyle=orthogonalEdgeStyle;rounded=0;orthogonalLoop=1;jettySize=auto;html=1;entryX=1;entryY=0.5;entryDx=0;entryDy=0;" edge="1" parent="1" source="BWjhj73lmF8ZgqSWJlSN-1" target="rRcewzAmyN-qnKviRc5V-23">
          <mxGeometry relative="1" as="geometry" />
        </mxCell>
        <mxCell id="BWjhj73lmF8ZgqSWJlSN-1" value="header" style="rounded=0;whiteSpace=wrap;html=1;" parent="1" vertex="1">
          <mxGeometry x="26" y="320" width="114" height="60" as="geometry" />
        </mxCell>
        <mxCell id="rRcewzAmyN-qnKviRc5V-1" value="地區選單" style="rounded=0;whiteSpace=wrap;html=1;" vertex="1" parent="1">
          <mxGeometry x="-160" y="370" width="120" height="60" as="geometry" />
        </mxCell>
        <mxCell id="rRcewzAmyN-qnKviRc5V-6" value="" style="edgeStyle=orthogonalEdgeStyle;rounded=0;orthogonalLoop=1;jettySize=auto;html=1;" edge="1" parent="1" source="rRcewzAmyN-qnKviRc5V-2" target="rRcewzAmyN-qnKviRc5V-3">
          <mxGeometry relative="1" as="geometry" />
        </mxCell>
        <mxCell id="rRcewzAmyN-qnKviRc5V-2" value="種類選單" style="rounded=0;whiteSpace=wrap;html=1;" vertex="1" parent="1">
          <mxGeometry x="-160" y="460" width="120" height="60" as="geometry" />
        </mxCell>
        <mxCell id="rRcewzAmyN-qnKviRc5V-3" value="排名物品選單" style="rounded=0;whiteSpace=wrap;html=1;" vertex="1" parent="1">
          <mxGeometry x="-320" y="460" width="120" height="60" as="geometry" />
        </mxCell>
        <mxCell id="rRcewzAmyN-qnKviRc5V-7" value="搜索按鈕" style="rounded=0;whiteSpace=wrap;html=1;" vertex="1" parent="1">
          <mxGeometry x="-160" y="280" width="120" height="60" as="geometry" />
        </mxCell>
        <mxCell id="rRcewzAmyN-qnKviRc5V-11" value="登入" style="rounded=0;whiteSpace=wrap;html=1;" vertex="1" parent="1">
          <mxGeometry x="-160" y="200" width="120" height="60" as="geometry" />
        </mxCell>
        <mxCell id="rRcewzAmyN-qnKviRc5V-14" style="edgeStyle=orthogonalEdgeStyle;rounded=0;orthogonalLoop=1;jettySize=auto;html=1;entryX=1;entryY=0.5;entryDx=0;entryDy=0;" edge="1" parent="1" source="rRcewzAmyN-qnKviRc5V-13" target="BWjhj73lmF8ZgqSWJlSN-1">
          <mxGeometry relative="1" as="geometry" />
        </mxCell>
        <mxCell id="rRcewzAmyN-qnKviRc5V-18" style="edgeStyle=orthogonalEdgeStyle;rounded=0;orthogonalLoop=1;jettySize=auto;html=1;entryX=1;entryY=0.5;entryDx=0;entryDy=0;" edge="1" parent="1" source="rRcewzAmyN-qnKviRc5V-13" target="rRcewzAmyN-qnKviRc5V-16">
          <mxGeometry relative="1" as="geometry" />
        </mxCell>
        <mxCell id="rRcewzAmyN-qnKviRc5V-32" style="edgeStyle=orthogonalEdgeStyle;rounded=0;orthogonalLoop=1;jettySize=auto;html=1;entryX=1;entryY=0.5;entryDx=0;entryDy=0;" edge="1" parent="1" source="rRcewzAmyN-qnKviRc5V-13" target="rRcewzAmyN-qnKviRc5V-31">
          <mxGeometry relative="1" as="geometry" />
        </mxCell>
        <mxCell id="rRcewzAmyN-qnKviRc5V-13" value="排名網站" style="rounded=0;whiteSpace=wrap;html=1;" vertex="1" parent="1">
          <mxGeometry x="260" y="500" width="120" height="60" as="geometry" />
        </mxCell>
        <mxCell id="rRcewzAmyN-qnKviRc5V-26" style="edgeStyle=orthogonalEdgeStyle;rounded=0;orthogonalLoop=1;jettySize=auto;html=1;entryX=1;entryY=0.5;entryDx=0;entryDy=0;" edge="1" parent="1" source="rRcewzAmyN-qnKviRc5V-16" target="rRcewzAmyN-qnKviRc5V-19">
          <mxGeometry relative="1" as="geometry" />
        </mxCell>
        <mxCell id="rRcewzAmyN-qnKviRc5V-27" style="edgeStyle=orthogonalEdgeStyle;rounded=0;orthogonalLoop=1;jettySize=auto;html=1;" edge="1" parent="1" source="rRcewzAmyN-qnKviRc5V-16" target="rRcewzAmyN-qnKviRc5V-20">
          <mxGeometry relative="1" as="geometry" />
        </mxCell>
        <mxCell id="rRcewzAmyN-qnKviRc5V-28" style="edgeStyle=orthogonalEdgeStyle;rounded=0;orthogonalLoop=1;jettySize=auto;html=1;entryX=1;entryY=0.5;entryDx=0;entryDy=0;" edge="1" parent="1" source="rRcewzAmyN-qnKviRc5V-16" target="rRcewzAmyN-qnKviRc5V-21">
          <mxGeometry relative="1" as="geometry" />
        </mxCell>
        <mxCell id="rRcewzAmyN-qnKviRc5V-29" style="edgeStyle=orthogonalEdgeStyle;rounded=0;orthogonalLoop=1;jettySize=auto;html=1;entryX=1;entryY=0.5;entryDx=0;entryDy=0;" edge="1" parent="1" source="rRcewzAmyN-qnKviRc5V-16" target="rRcewzAmyN-qnKviRc5V-22">
          <mxGeometry relative="1" as="geometry" />
        </mxCell>
        <mxCell id="rRcewzAmyN-qnKviRc5V-30" style="edgeStyle=orthogonalEdgeStyle;rounded=0;orthogonalLoop=1;jettySize=auto;html=1;entryX=1;entryY=0.5;entryDx=0;entryDy=0;" edge="1" parent="1" source="rRcewzAmyN-qnKviRc5V-16" target="rRcewzAmyN-qnKviRc5V-25">
          <mxGeometry relative="1" as="geometry" />
        </mxCell>
        <mxCell id="rRcewzAmyN-qnKviRc5V-16" value="content" style="rounded=0;whiteSpace=wrap;html=1;" vertex="1" parent="1">
          <mxGeometry x="20" y="680" width="120" height="60" as="geometry" />
        </mxCell>
        <mxCell id="rRcewzAmyN-qnKviRc5V-19" value="排名" style="rounded=0;whiteSpace=wrap;html=1;" vertex="1" parent="1">
          <mxGeometry x="-160" y="640" width="120" height="60" as="geometry" />
        </mxCell>
        <mxCell id="rRcewzAmyN-qnKviRc5V-20" value="準確率" style="rounded=0;whiteSpace=wrap;html=1;" vertex="1" parent="1">
          <mxGeometry x="-160" y="720" width="120" height="60" as="geometry" />
        </mxCell>
        <mxCell id="rRcewzAmyN-qnKviRc5V-21" value="最近預覽" style="rounded=0;whiteSpace=wrap;html=1;" vertex="1" parent="1">
          <mxGeometry x="-160" y="810" width="120" height="60" as="geometry" />
        </mxCell>
        <mxCell id="rRcewzAmyN-qnKviRc5V-22" value="分享排名" style="rounded=0;whiteSpace=wrap;html=1;" vertex="1" parent="1">
          <mxGeometry x="-160" y="900" width="120" height="60" as="geometry" />
        </mxCell>
        <mxCell id="rRcewzAmyN-qnKviRc5V-23" value="社群" style="rounded=0;whiteSpace=wrap;html=1;" vertex="1" parent="1">
          <mxGeometry x="-160" y="540" width="120" height="60" as="geometry" />
        </mxCell>
        <mxCell id="rRcewzAmyN-qnKviRc5V-25" value="廣告" style="rounded=0;whiteSpace=wrap;html=1;" vertex="1" parent="1">
          <mxGeometry x="-160" y="1000" width="120" height="60" as="geometry" />
        </mxCell>
        <mxCell id="rRcewzAmyN-qnKviRc5V-31" value="footer" style="rounded=0;whiteSpace=wrap;html=1;" vertex="1" parent="1">
          <mxGeometry x="20" y="1070" width="120" height="60" as="geometry" />
        </mxCell>
      </root>
    </mxGraphModel>
  </diagram>
</mxfile>
